<svg width="45" height="28" viewBox="0 0 45 28" fill="none" xmlns="http://www.w3.org/2000/svg">
<path d="M10.1074 27.4783L10.1074 28L18.6328 28L18.6328 17.7391C18.6328 16.7826 19.9512 16.4348 20.3906 17.3044L21.3574 19.3043C22.6758 22 23.3789 24.6956 23.3789 27.4783L23.3789 28L31.9043 28L31.9043 18C31.9043 17.0435 33.2226 16.6956 33.6621 17.5652L34.6289 19.6522C35.8594 22.1739 36.4746 24.8696 36.4746 27.4783L36.4746 28L45 28L45 18L43.5937 16.8696C37.8809 12 34.8926 6.34783 34.8926 0.434781L34.8926 -1.5252e-06L26.3672 -1.15255e-06L26.3672 10C26.3672 10.9565 25.0488 11.3044 24.6094 10.4348L23.6426 8.34781C22.4121 5.82607 21.7969 3.13041 21.7969 0.521716L21.7969 0.0869341L13.2715 0.0869345L13.2715 10.2609C13.2715 11.2174 11.9531 11.5652 11.5137 10.6956L10.5469 8.69566C9.22851 6 8.5254 3.30433 8.5254 0.521717L8.5254 0.0869347L-1.22012e-06 0.086935L-7.83005e-07 10.0869L1.40625 11.2174C7.11914 15.913 10.1074 21.6522 10.1074 27.4783Z" fill="white"/>
</svg>
